<svg xmlns="http://www.w3.org/2000/svg" viewBox="0 0 192 192">
<path
fill="rgb(234, 191, 125)"
d="M55.963,105.887 L22.827,105.887 C19.052,105.887 15.992,102.826 15.992,99.051 L15.992,59.345 C15.992,55.570 19.052,52.509 22.827,52.509 L55.963,52.509 L55.963,105.887 Z"
></path>
<path
fill="rgb(219, 154, 89)"
d="M116.756,105.831 L69.385,105.831 L69.385,59.283 C69.385,55.507 66.325,52.446 62.551,52.446 L55.985,52.446 L55.985,38.238 C55.985,34.689 58.861,31.813 62.408,31.813 L116.756,31.813 C120.303,31.813 123.179,34.689 123.179,38.238 L123.179,99.406 C123.179,102.954 120.303,105.831 116.756,105.831 Z"
></path>
</svg>
